<?xml version="1.0" encoding="utf-8"?>
<!DOCTYPE svg PUBLIC "-//W3C//DTD SVG 1.1//EN" "http://www.w3.org/Graphics/SVG/1.1/DTD/svg11.dtd">
<svg version="1.1" width="134" height="127" xmlns="http://www.w3.org/2000/svg">
  <path d="M 0,0C1.16666666666667,0 4.66666666666667,0 7,0 C9.33333333333333,0 11.6666666666667,0 14,0 C16.3333333333333,0 18.6666666666667,0 21,0 C23.3333333333333,0 25.6666666666667,0 28,0 C30.3333333333333,0 32.6666666666667,0 35,0 C37.3333333333333,0 39.6666666666667,0 42,0 C44.3333333333333,0 46.6666666666667,0 49,0 C51.3333333333333,0 53.6666666666667,0 56,0 C58.3333333333333,0 60.6666666666667,0 63,0 C65.3333333333333,0 67.6666666666667,0 70,0 C72.3333333333333,0 74.6666666666667,0 77,0 C79.3333333333333,0 81.6666666666667,0 84,0 C86.3333333333333,0 88.6666666666667,0 91,0 C93.3333333333333,0 95.6666666666667,0 98,0 C100.333333333333,0 102.666666666667,0 105,0 C107.333333333333,0 109.666666666667,0 112,0 C114.333333333333,0 116.666666666667,0 119,0 C121.333333333333,0 123.666666666667,0 126,0 C128.333333333333,0 131.833333333333,-1.16666666666667 133,0 C134.166666666667,1.16666666666667 133,4.66666666666667 133,7 C133,9.33333333333333 133,11.6666666666667 133,14 C133,16.3333333333333 133,18.6666666666667 133,21 C133,23.3333333333333 133,25.6666666666667 133,28 C133,30.3333333333333 133,32.6666666666667 133,35 C133,37.3333333333333 133,39.6666666666667 133,42 C133,44.3333333333333 133,46.6666666666667 133,49 C133,51.3333333333333 133,53.6666666666667 133,56 C133,58.3333333333333 133,60.6666666666667 133,63 C133,65.3333333333333 133,67.6666666666667 133,70 C133,72.3333333333333 133,74.6666666666667 133,77 C133,79.3333333333333 133,81.6666666666667 133,84 C133,86.3333333333333 133,88.6666666666667 133,91 C133,93.3333333333333 133,95.6666666666667 133,98 C133,100.333333333333 133,102.666666666667 133,105 C133,107.333333333333 133,109.666666666667 133,112 C133,114.333333333333 133,116.666666666667 133,119 C133,121.333333333333 134.166666666667,124.833333333333 133,126 C131.833333333333,127.166666666667 128.333333333333,126 126,126 C123.666666666667,126 121.333333333333,126 119,126 C116.666666666667,126 114.333333333333,126 112,126 C109.666666666667,126 107.333333333333,126 105,126 C102.666666666667,126 100.333333333333,126 98,126 C95.6666666666667,126 93.3333333333333,126 91,126 C88.6666666666667,126 86.3333333333333,126 84,126 C81.6666666666667,126 79.3333333333333,126 77,126 C74.6666666666667,126 72.3333333333333,126 70,126 C67.6666666666667,126 65.3333333333333,126 63,126 C60.6666666666667,126 58.3333333333333,126 56,126 C53.6666666666667,126 51.3333333333333,126 49,126 C46.6666666666667,126 44.3333333333333,126 42,126 C39.6666666666667,126 37.3333333333333,126 35,126 C32.6666666666667,126 30.3333333333333,126 28,126 C25.6666666666667,126 23.3333333333333,126 21,126 C18.6666666666667,126 16.3333333333333,126 14,126 C11.6666666666667,126 9.33333333333333,126 7,126 C4.66666666666667,126 1.16666666666667,127.166666666667 0,126 C-1.16666666666667,124.833333333333 0,121.333333333333 0,119 C0,116.666666666667 0,114.333333333333 0,112 C0,109.666666666667 0,107.333333333333 0,105 C0,102.666666666667 0,100.333333333333 0,98 C0,95.6666666666667 0,93.3333333333333 0,91 C0,88.6666666666667 0,86.3333333333333 0,84 C0,81.6666666666667 0,79.3333333333333 0,77 C0,74.6666666666667 0,72.3333333333333 0,70 C0,67.6666666666667 0,65.3333333333333 0,63 C0,60.6666666666667 0,58.3333333333333 0,56 C0,53.6666666666667 0,51.3333333333333 0,49 C0,46.6666666666667 0,44.3333333333333 0,42 C0,39.6666666666667 0,37.3333333333333 0,35 C0,32.6666666666667 0,30.3333333333333 0,28 C0,25.6666666666667 0,23.3333333333333 0,21 C0,18.6666666666667 0,16.3333333333333 0,14 C0,11.6666666666667 0,9.33333333333333 0,7 C0,4.66666666666667 0,1.16666666666667 0,0  " fill="#000000" stroke="#000000" stroke-width="0.01" />
  <path d="M 35,21C35,19.8333333333333 35.3333333333333,16 35,14 C34.6666666666667,12 34.1666666666667,10.1666666666667 33,9 C31.8333333333333,7.83333333333333 30,7.33333333333333 28,7 C26,6.66666666666667 23.3333333333333,7 21,7 C18.6666666666667,7 16,6.66666666666667 14,7 C12,7.33333333333333 10.1666666666667,7.83333333333333 9,9 C7.83333333333333,10.1666666666667 7.33333333333333,12 7,14 C6.66666666666667,16 7,18.6666666666667 7,21 C7,23.3333333333333 7,26.8333333333333 7,28  C7,29.1666666666667 7,32.6666666666667 7,35 C7,37.3333333333333 6.66666666666667,40 7,42 C7.33333333333333,44 8.16666666666667,45.5 9,47 C9.83333333333333,48.5 10.8333333333333,49.8333333333333 12,51 C13.1666666666667,52.1666666666667 14.8333333333333,52.8333333333333 16,54 C17.1666666666667,55.1666666666667 17.8333333333333,56.8333333333333 19,58 C20.1666666666667,59.1666666666667 21.8333333333333,59.8333333333333 23,61 C24.1666666666667,62.1666666666667 25.1666666666667,63.5 26,65 C26.8333333333333,66.5 27.6666666666667,69.1666666666667 28,70  C28,71.1666666666667 28.3333333333333,75 28,77 C27.6666666666667,79 27.1666666666667,80.8333333333333 26,82 C24.8333333333333,83.1666666666667 21.8333333333333,83.6666666666667 21,84  C21,82.8333333333333 21.3333333333333,79 21,77 C20.6666666666667,75 20.1666666666667,73.1666666666667 19,72 C17.8333333333333,70.8333333333333 15.6666666666667,70 14,70 C12.3333333333333,70 10.1666666666667,70.8333333333333 9,72 C7.83333333333333,73.1666666666667 7.33333333333333,75 7,77 C6.66666666666667,79 7,81.6666666666667 7,84 C7,86.3333333333333 7,88.6666666666667 7,91 C7,93.3333333333333 6.66666666666667,96 7,98 C7.33333333333333,100 7.83333333333333,101.833333333333 9,103 C10.1666666666667,104.166666666667 12,104.666666666667 14,105 C16,105.333333333333 19.8333333333333,105 21,105  C22.1666666666667,105 25.6666666666667,105 28,105 C30.3333333333333,105 33,104.666666666667 35,105 C37,105.333333333333 38.5,106.166666666667 40,107 C41.5,107.833333333333 42.5,109.166666666667 44,110 C45.5,110.833333333333 47,111.666666666667 49,112 C51,112.333333333333 54,111.666666666667 56,112 C58,112.333333333333 59.5,113.166666666667 61,114 C62.5,114.833333333333 63.5,116.166666666667 65,117 C66.5,117.833333333333 68,118.666666666667 70,119 C72,119.333333333333 74.6666666666667,119 77,119 C79.3333333333333,119 81.6666666666667,119 84,119 C86.3333333333333,119 89,119.333333333333 91,119 C93,118.666666666667 94.8333333333333,118.166666666667 96,117 C97.1666666666667,115.833333333333 97.6666666666667,112.833333333333 98,112  C98.8333333333333,112.333333333333 101.5,113.166666666667 103,114 C104.5,114.833333333333 105.5,116.166666666667 107,117 C108.5,117.833333333333 110.333333333333,119 112,119 C113.666666666667,119 115.833333333333,118.166666666667 117,117 C118.166666666667,115.833333333333 119,113.666666666667 119,112 C119,110.333333333333 117.833333333333,108.5 117,107 C116.166666666667,105.5 114.833333333333,104.5 114,103 C113.166666666667,101.5 112.333333333333,98.8333333333333 112,98  C112.833333333333,97.6666666666667 115.5,96.8333333333333 117,96 C118.5,95.1666666666667 119.833333333333,94.1666666666667 121,93 C122.166666666667,91.8333333333333 123.166666666667,90.5 124,89 C124.833333333333,87.5 126,85.6666666666667 126,84 C126,82.3333333333333 125.166666666667,80.1666666666667 124,79 C122.833333333333,77.8333333333333 119.833333333333,77.3333333333333 119,77  C118.666666666667,76.1666666666667 117.833333333333,73.5 117,72 C116.166666666667,70.5 115.166666666667,69.1666666666667 114,68 C112.833333333333,66.8333333333333 111.5,65.8333333333333 110,65 C108.5,64.1666666666667 107,63.3333333333333 105,63 C103,62.6666666666667 100.333333333333,63 98,63 C95.6666666666667,63 93.3333333333333,63 91,63 C88.6666666666667,63 85.1666666666667,63 84,63  C84,61.8333333333333 84,57.1666666666667 84,56  C85.1666666666667,56 89,56.3333333333333 91,56 C93,55.6666666666667 94.8333333333333,55.1666666666667 96,54 C97.1666666666667,52.8333333333333 97.6666666666667,51 98,49 C98.3333333333333,47 98.3333333333333,44 98,42 C97.6666666666667,40 96.8333333333333,38.5 96,37 C95.1666666666667,35.5 93.8333333333333,34.5 93,33 C92.1666666666667,31.5 91.3333333333333,28.8333333333333 91,28  C90.6666666666667,27.1666666666667 89.8333333333333,24.5 89,23 C88.1666666666667,21.5 87.1666666666667,20.1666666666667 86,19 C84.8333333333333,17.8333333333333 83.5,16.8333333333333 82,16 C80.5,15.1666666666667 79,14.3333333333333 77,14 C75,13.6666666666667 72.3333333333333,14 70,14 C67.6666666666667,14 65.3333333333333,14 63,14 C60.6666666666667,14 58.3333333333333,14 56,14 C53.6666666666667,14 51,13.6666666666667 49,14 C47,14.3333333333333 45.5,15.1666666666667 44,16 C42.5,16.8333333333333 41.5,18.1666666666667 40,19 C38.5,19.8333333333333 35.8333333333333,20.6666666666667 35,21  " fill="#000000" stroke="#000000" stroke-width="0.01" />
  <path d="M 42,63C40.8333333333333,63 36.1666666666667,63 35,63  C34.6666666666667,63.8333333333333 34.1666666666667,66.8333333333333 33,68 C31.8333333333333,69.1666666666667 28.8333333333333,69.6666666666667 28,70  C28,71.1666666666667 28.3333333333333,75 28,77 C27.6666666666667,79 27.1666666666667,80.8333333333333 26,82 C24.8333333333333,83.1666666666667 21.8333333333333,83.6666666666667 21,84  C21,85.1666666666667 21,88.6666666666667 21,91 C21,93.3333333333333 21,95.6666666666667 21,98 C21,100.333333333333 21,103.833333333333 21,105  C22.1666666666667,105 25.6666666666667,105 28,105 C30.3333333333333,105 33,104.666666666667 35,105 C37,105.333333333333 38.5,106.166666666667 40,107 C41.5,107.833333333333 42.5,109.166666666667 44,110 C45.5,110.833333333333 47,111.666666666667 49,112 C51,112.333333333333 54,111.666666666667 56,112 C58,112.333333333333 59.5,113.166666666667 61,114 C62.5,114.833333333333 63.5,116.166666666667 65,117 C66.5,117.833333333333 68,118.666666666667 70,119 C72,119.333333333333 74.6666666666667,119 77,119 C79.3333333333333,119 81.6666666666667,119 84,119 C86.3333333333333,119 89,119.333333333333 91,119 C93,118.666666666667 94.8333333333333,118.166666666667 96,117 C97.1666666666667,115.833333333333 97.6666666666667,112.833333333333 98,112  C97.1666666666667,111.666666666667 94.5,110.833333333333 93,110 C91.5,109.166666666667 90.1666666666667,108.166666666667 89,107 C87.8333333333333,105.833333333333 86.5,104.166666666667 86,103 C85.5,101.833333333333 85.5,101.166666666667 86,100 C86.5,98.8333333333333 87.8333333333333,97.1666666666667 89,96 C90.1666666666667,94.8333333333333 91.5,93.8333333333333 93,93 C94.5,92.1666666666667 97.1666666666667,91.3333333333333 98,91  C98,89.8333333333333 98,85.1666666666667 98,84  C96.8333333333333,84 93.3333333333333,84 91,84 C88.6666666666667,84 86,83.6666666666667 84,84 C82,84.3333333333333 80.5,85.1666666666667 79,86 C77.5,86.8333333333333 76.1666666666667,88.5 75,89 C73.8333333333333,89.5 73.1666666666667,89.5 72,89 C70.8333333333333,88.5 69.1666666666667,87.1666666666667 68,86 C66.8333333333333,84.8333333333333 65.8333333333333,83.5 65,82 C64.1666666666667,80.5 63,78.6666666666667 63,77 C63,75.3333333333333 64.1666666666667,73.5 65,72 C65.8333333333333,70.5 67.1666666666667,69.5 68,68 C68.8333333333333,66.5 69.6666666666667,63.8333333333333 70,63  C68.8333333333333,63 64.1666666666667,63 63,63  C62.6666666666667,63.8333333333333 61.8333333333333,66.5 61,68 C60.1666666666667,69.5 59.1666666666667,70.8333333333333 58,72 C56.8333333333333,73.1666666666667 55.5,74.1666666666667 54,75 C52.5,75.8333333333333 51,76.6666666666667 49,77 C47,77.3333333333333 44,77.3333333333333 42,77 C40,76.6666666666667 37.8333333333333,75.8333333333333 37,75 C36.1666666666667,74.1666666666667 36.5,73.1666666666667 37,72 C37.5,70.8333333333333 39.1666666666667,69.5 40,68 C40.8333333333333,66.5 41.6666666666667,63.8333333333333 42,63  " fill="#F83800" stroke="#F83800" stroke-width="0.01" />
  <path d="M 63,28C61.8333333333333,28 58.3333333333333,28 56,28 C53.6666666666667,28 50.1666666666667,28 49,28  C49,29.1666666666667 49.3333333333333,33 49,35 C48.6666666666667,37 47.8333333333333,38.5 47,40 C46.1666666666667,41.5 44.5,42.8333333333333 44,44 C43.5,45.1666666666667 43.5,45.8333333333333 44,47 C44.5,48.1666666666667 46.5,49.8333333333333 47,51 C47.5,52.1666666666667 47.8333333333333,53.1666666666667 47,54 C46.1666666666667,54.8333333333333 44,55.6666666666667 42,56 C40,56.3333333333333 37,55.6666666666667 35,56 C33,56.3333333333333 30.8333333333333,57.1666666666667 30,58 C29.1666666666667,58.8333333333333 29.1666666666667,60.1666666666667 30,61 C30.8333333333333,61.8333333333333 34.1666666666667,62.6666666666667 35,63  C36.1666666666667,63 40.8333333333333,63 42,63  C43.1666666666667,63 46.6666666666667,63 49,63 C51.3333333333333,63 53.6666666666667,63 56,63 C58.3333333333333,63 61.8333333333333,63 63,63  C64.1666666666667,63 68.8333333333333,63 70,63  C71.1666666666667,63 74.6666666666667,63 77,63 C79.3333333333333,63 82.8333333333333,63 84,63  C84,61.8333333333333 84,57.1666666666667 84,56  C83.1666666666667,55.6666666666667 79.8333333333333,54.8333333333333 79,54 C78.1666666666667,53.1666666666667 78.5,52.1666666666667 79,51 C79.5,49.8333333333333 81.1666666666667,48.5 82,47 C82.8333333333333,45.5 84,43.6666666666667 84,42 C84,40.3333333333333 82.8333333333333,37.8333333333333 82,37 C81.1666666666667,36.1666666666667 79.8333333333333,36.1666666666667 79,37 C78.1666666666667,37.8333333333333 77.6666666666667,40.3333333333333 77,42 C76.3333333333333,43.6666666666667 76.1666666666667,45.8333333333333 75,47 C73.8333333333333,48.1666666666667 71.6666666666667,49 70,49 C68.3333333333333,49 65.8333333333333,47.8333333333333 65,47 C64.1666666666667,46.1666666666667 64.5,45.1666666666667 65,44 C65.5,42.8333333333333 67.5,41.1666666666667 68,40 C68.5,38.8333333333333 68.5,38.1666666666667 68,37 C67.5,35.8333333333333 65.8333333333333,34.5 65,33 C64.1666666666667,31.5 63.3333333333333,28.8333333333333 63,28  " fill="#FFA440" stroke="#FFA440" stroke-width="0.01" />
  <path d="M 70,63C71.1666666666667,63 74.6666666666667,63 77,63 C79.3333333333333,63 82.8333333333333,63 84,63  C85.1666666666667,63 88.6666666666667,63 91,63 C93.3333333333333,63 95.6666666666667,63 98,63 C100.333333333333,63 103,62.6666666666667 105,63 C107,63.3333333333333 108.5,64.1666666666667 110,65 C111.5,65.8333333333333 112.833333333333,66.8333333333333 114,68 C115.166666666667,69.1666666666667 116.166666666667,70.5 117,72 C117.833333333333,73.5 118.666666666667,76.1666666666667 119,77  C117.833333333333,77 114,76.6666666666667 112,77 C110,77.3333333333333 108.5,78.1666666666667 107,79 C105.5,79.8333333333333 104.5,81.1666666666667 103,82 C101.5,82.8333333333333 98.8333333333333,83.6666666666667 98,84  C96.8333333333333,84 93.3333333333333,84 91,84 C88.6666666666667,84 86,83.6666666666667 84,84 C82,84.3333333333333 80.5,85.1666666666667 79,86 C77.5,86.8333333333333 76.1666666666667,88.5 75,89 C73.8333333333333,89.5 73.1666666666667,89.5 72,89 C70.8333333333333,88.5 69.1666666666667,87.1666666666667 68,86 C66.8333333333333,84.8333333333333 65.8333333333333,83.5 65,82 C64.1666666666667,80.5 63,78.6666666666667 63,77 C63,75.3333333333333 64.1666666666667,73.5 65,72 C65.8333333333333,70.5 67.1666666666667,69.5 68,68 C68.8333333333333,66.5 69.6666666666667,63.8333333333333 70,63  " fill="#AC7C00" stroke="#AC7C00" stroke-width="0.01" />
  <path d="M 7,28C8.16666666666667,28 11.6666666666667,28 14,28 C16.3333333333333,28 19.8333333333333,28 21,28  C22.1666666666667,28 25.6666666666667,28 28,28 C30.3333333333333,28 33.8333333333333,28 35,28  C34.6666666666667,28.8333333333333 33.8333333333333,31.5 33,33 C32.1666666666667,34.5 31.1666666666667,35.8333333333333 30,37 C28.8333333333333,38.1666666666667 27.5,39.1666666666667 26,40 C24.5,40.8333333333333 22.6666666666667,41.3333333333333 21,42 C19.3333333333333,42.6666666666667 16.8333333333333,43.1666666666667 16,44 C15.1666666666667,44.8333333333333 15.1666666666667,46.1666666666667 16,47 C16.8333333333333,47.8333333333333 19,48.6666666666667 21,49 C23,49.3333333333333 26,49.3333333333333 28,49 C30,48.6666666666667 31.5,47.8333333333333 33,47 C34.5,46.1666666666667 35.8333333333333,45.1666666666667 37,44 C38.1666666666667,42.8333333333333 39.1666666666667,41.5 40,40 C40.8333333333333,38.5 41.6666666666667,37 42,35 C42.3333333333333,33 42,29.1666666666667 42,28  C43.1666666666667,28 47.8333333333333,28 49,28  C49,29.1666666666667 49.3333333333333,33 49,35 C48.6666666666667,37 47.8333333333333,38.5 47,40 C46.1666666666667,41.5 44.5,42.8333333333333 44,44 C43.5,45.1666666666667 43.5,45.8333333333333 44,47 C44.5,48.1666666666667 46.5,49.8333333333333 47,51 C47.5,52.1666666666667 47.8333333333333,53.1666666666667 47,54 C46.1666666666667,54.8333333333333 44,55.6666666666667 42,56 C40,56.3333333333333 37,55.6666666666667 35,56 C33,56.3333333333333 30.8333333333333,57.1666666666667 30,58 C29.1666666666667,58.8333333333333 29.1666666666667,60.1666666666667 30,61 C30.8333333333333,61.8333333333333 34.1666666666667,62.6666666666667 35,63  C34.6666666666667,63.8333333333333 34.1666666666667,66.8333333333333 33,68 C31.8333333333333,69.1666666666667 28.8333333333333,69.6666666666667 28,70  C27.6666666666667,69.1666666666667 26.8333333333333,66.5 26,65 C25.1666666666667,63.5 24.1666666666667,62.1666666666667 23,61 C21.8333333333333,59.8333333333333 20.1666666666667,59.1666666666667 19,58 C17.8333333333333,56.8333333333333 17.1666666666667,55.1666666666667 16,54 C14.8333333333333,52.8333333333333 13.1666666666667,52.1666666666667 12,51 C10.8333333333333,49.8333333333333 9.83333333333333,48.5 9,47 C8.16666666666667,45.5 7.33333333333333,44 7,42 C6.66666666666667,40 7,37.3333333333333 7,35 C7,32.6666666666667 7,29.1666666666667 7,28  " fill="#AC7C00" stroke="#AC7C00" stroke-width="0.01" />
  <path d="M 21,28C21.3333333333333,27.1666666666667 21.8333333333333,24.1666666666667 23,23 C24.1666666666667,21.8333333333333 26,21.3333333333333 28,21 C30,20.6666666666667 33.8333333333333,21 35,21  C35.8333333333333,20.6666666666667 38.5,19.8333333333333 40,19 C41.5,18.1666666666667 42.5,16.8333333333333 44,16 C45.5,15.1666666666667 47,14.3333333333333 49,14 C51,13.6666666666667 53.6666666666667,14 56,14 C58.3333333333333,14 60.6666666666667,14 63,14 C65.3333333333333,14 67.6666666666667,14 70,14 C72.3333333333333,14 75,13.6666666666667 77,14 C79,14.3333333333333 80.5,15.1666666666667 82,16 C83.5,16.8333333333333 84.8333333333333,17.8333333333333 86,19 C87.1666666666667,20.1666666666667 88.1666666666667,21.5 89,23 C89.8333333333333,24.5 90.6666666666667,27.1666666666667 91,28  C89.8333333333333,28 86.3333333333333,28 84,28 C81.6666666666667,28 79.3333333333333,28 77,28 C74.6666666666667,28 72.3333333333333,28 70,28 C67.6666666666667,28 64.1666666666667,28 63,28  C61.8333333333333,28 58.3333333333333,28 56,28 C53.6666666666667,28 50.1666666666667,28 49,28  C47.8333333333333,28 43.1666666666667,28 42,28  C40.8333333333333,28 36.1666666666667,28 35,28  C33.8333333333333,28 30.3333333333333,28 28,28 C25.6666666666667,28 22.1666666666667,28 21,28  " fill="#F83800" stroke="#F83800" stroke-width="0.01" />
  <path d="M 91,28C89.8333333333333,28 86.3333333333333,28 84,28 C81.6666666666667,28 79.3333333333333,28 77,28 C74.6666666666667,28 72.3333333333333,28 70,28 C67.6666666666667,28 64.1666666666667,28 63,28  C63.3333333333333,28.8333333333333 64.1666666666667,31.5 65,33 C65.8333333333333,34.5 67.5,35.8333333333333 68,37 C68.5,38.1666666666667 68.5,38.8333333333333 68,40 C67.5,41.1666666666667 65.5,42.8333333333333 65,44 C64.5,45.1666666666667 64.1666666666667,46.1666666666667 65,47 C65.8333333333333,47.8333333333333 68.3333333333333,49 70,49 C71.6666666666667,49 73.8333333333333,48.1666666666667 75,47 C76.1666666666667,45.8333333333333 76.3333333333333,43.6666666666667 77,42 C77.6666666666667,40.3333333333333 78.1666666666667,37.8333333333333 79,37 C79.8333333333333,36.1666666666667 81.1666666666667,36.1666666666667 82,37 C82.8333333333333,37.8333333333333 84,40.3333333333333 84,42 C84,43.6666666666667 82.8333333333333,45.5 82,47 C81.1666666666667,48.5 79.5,49.8333333333333 79,51 C78.5,52.1666666666667 78.1666666666667,53.1666666666667 79,54 C79.8333333333333,54.8333333333333 83.1666666666667,55.6666666666667 84,56  C85.1666666666667,56 89,56.3333333333333 91,56 C93,55.6666666666667 94.8333333333333,55.1666666666667 96,54 C97.1666666666667,52.8333333333333 97.6666666666667,51 98,49 C98.3333333333333,47 98.3333333333333,44 98,42 C97.6666666666667,40 96.8333333333333,38.5 96,37 C95.1666666666667,35.5 93.8333333333333,34.5 93,33 C92.1666666666667,31.5 91.3333333333333,28.8333333333333 91,28  " fill="#AC7C00" stroke="#AC7C00" stroke-width="0.01" />
  <path d="M 98,112C97.1666666666667,111.666666666667 94.5,110.833333333333 93,110 C91.5,109.166666666667 90.1666666666667,108.166666666667 89,107 C87.8333333333333,105.833333333333 86.5,104.166666666667 86,103 C85.5,101.833333333333 85.5,101.166666666667 86,100 C86.5,98.8333333333333 87.8333333333333,97.1666666666667 89,96 C90.1666666666667,94.8333333333333 91.5,93.8333333333333 93,93 C94.5,92.1666666666667 97.1666666666667,91.3333333333333 98,91  C98.8333333333333,91.3333333333333 101.5,92.1666666666667 103,93 C104.5,93.8333333333333 105.5,95.1666666666667 107,96 C108.5,96.8333333333333 111.166666666667,97.6666666666667 112,98  C112.333333333333,98.8333333333333 113.166666666667,101.5 114,103 C114.833333333333,104.5 116.166666666667,105.5 117,107 C117.833333333333,108.5 119,110.333333333333 119,112 C119,113.666666666667 118.166666666667,115.833333333333 117,117 C115.833333333333,118.166666666667 113.666666666667,119 112,119 C110.333333333333,119 108.5,117.833333333333 107,117 C105.5,116.166666666667 104.5,114.833333333333 103,114 C101.5,113.166666666667 98.8333333333333,112.333333333333 98,112  " fill="#AC7C00" stroke="#AC7C00" stroke-width="0.01" />
  <path d="M 35,21C35,19.8333333333333 35.3333333333333,16 35,14 C34.6666666666667,12 34.1666666666667,10.1666666666667 33,9 C31.8333333333333,7.83333333333333 30,7.33333333333333 28,7 C26,6.66666666666667 23.3333333333333,7 21,7 C18.6666666666667,7 16,6.66666666666667 14,7 C12,7.33333333333333 10.1666666666667,7.83333333333333 9,9 C7.83333333333333,10.1666666666667 7.33333333333333,12 7,14 C6.66666666666667,16 7,18.6666666666667 7,21 C7,23.3333333333333 7,26.8333333333333 7,28  C8.16666666666667,28 11.6666666666667,28 14,28 C16.3333333333333,28 19.8333333333333,28 21,28  C21.3333333333333,27.1666666666667 21.8333333333333,24.1666666666667 23,23 C24.1666666666667,21.8333333333333 26,21.3333333333333 28,21 C30,20.6666666666667 33.8333333333333,21 35,21  " fill="#FFA440" stroke="#FFA440" stroke-width="0.01" />
  <path d="M 21,84C21,82.8333333333333 21.3333333333333,79 21,77 C20.6666666666667,75 20.1666666666667,73.1666666666667 19,72 C17.8333333333333,70.8333333333333 15.6666666666667,70 14,70 C12.3333333333333,70 10.1666666666667,70.8333333333333 9,72 C7.83333333333333,73.1666666666667 7.33333333333333,75 7,77 C6.66666666666667,79 7,81.6666666666667 7,84 C7,86.3333333333333 7,88.6666666666667 7,91 C7,93.3333333333333 6.66666666666667,96 7,98 C7.33333333333333,100 7.83333333333333,101.833333333333 9,103 C10.1666666666667,104.166666666667 12,104.666666666667 14,105 C16,105.333333333333 19.8333333333333,105 21,105  C21,103.833333333333 21,100.333333333333 21,98 C21,95.6666666666667 21,93.3333333333333 21,91 C21,88.6666666666667 21,85.1666666666667 21,84  " fill="#AC7C00" stroke="#AC7C00" stroke-width="0.01" />
  <path d="M 119,77C117.833333333333,77 114,76.6666666666667 112,77 C110,77.3333333333333 108.5,78.1666666666667 107,79 C105.5,79.8333333333333 104.5,81.1666666666667 103,82 C101.5,82.8333333333333 98.8333333333333,83.6666666666667 98,84  C98,85.1666666666667 98,89.8333333333333 98,91  C98.8333333333333,91.3333333333333 101.5,92.1666666666667 103,93 C104.5,93.8333333333333 105.5,95.1666666666667 107,96 C108.5,96.8333333333333 111.166666666667,97.6666666666667 112,98  C112.833333333333,97.6666666666667 115.5,96.8333333333333 117,96 C118.5,95.1666666666667 119.833333333333,94.1666666666667 121,93 C122.166666666667,91.8333333333333 123.166666666667,90.5 124,89 C124.833333333333,87.5 126,85.6666666666667 126,84 C126,82.3333333333333 125.166666666667,80.1666666666667 124,79 C122.833333333333,77.8333333333333 119.833333333333,77.3333333333333 119,77  " fill="#FFA440" stroke="#FFA440" stroke-width="0.01" />
  <path d="M 42,63C43.1666666666667,63 46.6666666666667,63 49,63 C51.3333333333333,63 53.6666666666667,63 56,63 C58.3333333333333,63 61.8333333333333,63 63,63  C62.6666666666667,63.8333333333333 61.8333333333333,66.5 61,68 C60.1666666666667,69.5 59.1666666666667,70.8333333333333 58,72 C56.8333333333333,73.1666666666667 55.5,74.1666666666667 54,75 C52.5,75.8333333333333 51,76.6666666666667 49,77 C47,77.3333333333333 44,77.3333333333333 42,77 C40,76.6666666666667 37.8333333333333,75.8333333333333 37,75 C36.1666666666667,74.1666666666667 36.5,73.1666666666667 37,72 C37.5,70.8333333333333 39.1666666666667,69.5 40,68 C40.8333333333333,66.5 41.6666666666667,63.8333333333333 42,63  " fill="#AC7C00" stroke="#AC7C00" stroke-width="0.01" />
  <path d="M 42,28C40.8333333333333,28 36.1666666666667,28 35,28  C34.6666666666667,28.8333333333333 33.8333333333333,31.5 33,33 C32.1666666666667,34.5 31.1666666666667,35.8333333333333 30,37 C28.8333333333333,38.1666666666667 27.5,39.1666666666667 26,40 C24.5,40.8333333333333 22.6666666666667,41.3333333333333 21,42 C19.3333333333333,42.6666666666667 16.8333333333333,43.1666666666667 16,44 C15.1666666666667,44.8333333333333 15.1666666666667,46.1666666666667 16,47 C16.8333333333333,47.8333333333333 19,48.6666666666667 21,49 C23,49.3333333333333 26,49.3333333333333 28,49 C30,48.6666666666667 31.5,47.8333333333333 33,47 C34.5,46.1666666666667 35.8333333333333,45.1666666666667 37,44 C38.1666666666667,42.8333333333333 39.1666666666667,41.5 40,40 C40.8333333333333,38.5 41.6666666666667,37 42,35 C42.3333333333333,33 42,29.1666666666667 42,28  " fill="#FFA440" stroke="#FFA440" stroke-width="0.01" />
  <path d="M 54,86C53.5,86 51.5,85.5 51,86 C50.5,86.5 50.5,88.5 51,89 C51.5,89.5 53.5,89.5 54,89 C54.5,88.5 54,86.5 54,86  " fill="#FFA440" stroke="#FFA440" stroke-width="0.01" />
  <path d="M 33,86C32.5,86 30.5,85.5 30,86 C29.5,86.5 29.5,88.5 30,89 C30.5,89.5 32.5,89.5 33,89 C33.5,88.5 33,86.5 33,86  " fill="#FFA440" stroke="#FFA440" stroke-width="0.01" />
</svg>